<svg width="26" height="26" viewBox="0 0 26 26" fill="none" xmlns="http://www.w3.org/2000/svg">
<path fill-rule="evenodd" clip-rule="evenodd" d="M20.5835 22.6296C20.5835 23.294 20.0647 23.8333 19.4228 23.8333C18.7809 23.8333 18.2621 23.294 18.2621 22.6296C18.2621 19.311 15.6586 16.6111 12.4585 16.6111C9.25841 16.6111 6.65492 19.311 6.65492 22.6296C6.65492 23.294 6.13609 23.8333 5.49421 23.8333C4.85234 23.8333 4.3335 23.294 4.3335 22.6296C4.3335 17.9833 7.9793 14.2037 12.4585 14.2037C16.9377 14.2037 20.5835 17.9833 20.5835 22.6296M12.4585 4.57403C13.7388 4.57403 14.7799 5.65376 14.7799 6.98144C14.7799 8.30913 13.7388 9.38885 12.4585 9.38885C11.1782 9.38885 10.1371 8.30913 10.1371 6.98144C10.1371 5.65376 11.1782 4.57403 12.4585 4.57403M12.4585 11.7963C15.019 11.7963 17.1014 9.63681 17.1014 6.98144C17.1014 4.32607 15.019 2.16663 12.4585 2.16663C9.89796 2.16663 7.81564 4.32607 7.81564 6.98144C7.81564 9.63681 9.89796 11.7963 12.4585 11.7963" fill="black"/>
</svg>
